2014001_C1_04_grf
version=1
nRows=21
nColumns=19
inDegrees=no
endheader
time	ground_force_1_vx	ground_force_1_vy	ground_force_1_vz	ground_force_1_px	ground_force_1_py	ground_force_1_pz	ground_force_1_mx	ground_force_1_my	ground_force_1_mz	ground_force_2_vx	ground_force_2_vy	ground_force_2_vz	ground_force_2_px	ground_force_2_py	ground_force_2_pz	ground_force_2_mx	ground_force_2_my	ground_force_2_mz
      1.42200000	     -5.24294246	    664.02815282	      2.33818176	      0.32994557	     -0.00200000	      0.17162410	      0.00000000	      0.38922956	      0.00000000	      0.00000000	      0.00000000	      0.00000000	      0.00000000	      0.00000000	      0.00000000	      0.00000000	      0.00000000	      0.00000000
      1.42300000	     -5.31318532	    664.08549622	      2.30351365	      0.33003880	     -0.00200000	      0.17181831	      0.00000000	      0.38965463	      0.00000000	      0.00000000	      0.00000000	      0.00000000	      0.00000000	      0.00000000	      0.00000000	      0.00000000	      0.00000000	      0.00000000
      1.42400000	     -5.38314097	    664.14111853	      2.26866771	      0.33013175	     -0.00200000	      0.17201273	     -0.00000000	      0.38999227	      0.00000000	      0.00000000	      0.00000000	      0.00000000	      0.00000000	      0.00000000	      0.00000000	      0.00000000	      0.00000000	      0.00000000
      1.42500000	     -5.45267919	    664.19475898	      2.23359063	      0.33022432	     -0.00200000	      0.17220742	      0.00000000	      0.39021993	     -0.00000000	      0.00000000	      0.00000000	      0.00000000	      0.00000000	      0.00000000	      0.00000000	      0.00000000	      0.00000000	      0.00000000
      1.42600000	     -5.52184079	    664.24688697	      2.19832049	      0.33031658	     -0.00200000	      0.17240232	      0.00000000	      0.39035959	      0.00000000	      0.00000000	      0.00000000	      0.00000000	      0.00000000	      0.00000000	      0.00000000	      0.00000000	      0.00000000	      0.00000000
      1.42700000	     -5.59048494	    664.29726779	      2.16279938	      0.33040844	     -0.00200000	      0.17259749	     -0.00000000	      0.39038892	     -0.00000000	      0.00000000	      0.00000000	      0.00000000	      0.00000000	      0.00000000	      0.00000000	      0.00000000	      0.00000000	      0.00000000
      1.42800000	     -5.65868150	    664.34644908	      2.12706858	      0.33049996	     -0.00200000	      0.17279287	     -0.00000000	      0.39032906	      0.00000000	      0.00000000	      0.00000000	      0.00000000	      0.00000000	      0.00000000	      0.00000000	      0.00000000	      0.00000000	      0.00000000
      1.42900000	     -5.72627317	    664.39411789	      2.09106244	      0.33059104	     -0.00200000	      0.17298848	      0.00000000	      0.39015493	     -0.00000000	      0.00000000	      0.00000000	      0.00000000	      0.00000000	      0.00000000	      0.00000000	      0.00000000	      0.00000000	      0.00000000
      1.43000000	     -5.79334516	    664.44074363	      2.05482384	      0.33068176	     -0.00200000	      0.17318428	      0.00000000	      0.38988583	      0.00000000	      0.00000000	      0.00000000	      0.00000000	      0.00000000	      0.00000000	      0.00000000	      0.00000000	      0.00000000	      0.00000000
      1.43100000	     -5.85971950	    664.48606551	      2.01827511	      0.33077203	     -0.00200000	      0.17338030	      0.00000000	      0.38949352	      0.00000000	      0.00000000	      0.00000000	      0.00000000	      0.00000000	      0.00000000	      0.00000000	      0.00000000	      0.00000000	      0.00000000
      1.43200000	     -5.92550095	    664.53044862	      1.98145830	      0.33086196	     -0.00200000	      0.17357650	      0.00000000	      0.38899921	      0.00000000	      0.00000000	      0.00000000	      0.00000000	      0.00000000	      0.00000000	      0.00000000	      0.00000000	      0.00000000	      0.00000000
      1.43300000	     -5.99050680	    664.57363218	      1.94427806	      0.33095148	     -0.00200000	      0.17377289	      0.00000000	      0.38837408	      0.00000000	      0.00000000	      0.00000000	      0.00000000	      0.00000000	      0.00000000	      0.00000000	      0.00000000	      0.00000000	      0.00000000
      1.43400000	     -6.05486892	    664.61592913	      1.90678407	      0.33104068	     -0.00200000	      0.17396944	      0.00000000	      0.38764300	      0.00000000	      0.00000000	      0.00000000	      0.00000000	      0.00000000	      0.00000000	      0.00000000	      0.00000000	      0.00000000	      0.00000000
      1.43500000	     -6.11840487	    664.65718299	      1.86887586	      0.33112949	     -0.00200000	      0.17416616	      0.00000000	      0.38678037	      0.00000000	      0.00000000	      0.00000000	      0.00000000	      0.00000000	      0.00000000	      0.00000000	      0.00000000	      0.00000000	      0.00000000
      1.43600000	     -6.18126858	    664.69760239	      1.83062190	      0.33121802	     -0.00200000	      0.17436300	      0.00000000	      0.38581469	      0.00000000	      0.00000000	      0.00000000	      0.00000000	      0.00000000	      0.00000000	      0.00000000	      0.00000000	      0.00000000	      0.00000000
      1.43700000	     -6.24328656	    664.73697871	      1.79191909	      0.33130622	     -0.00200000	      0.17455997	      0.00000000	      0.38472460	      0.00000000	      0.00000000	      0.00000000	      0.00000000	      0.00000000	      0.00000000	      0.00000000	      0.00000000	      0.00000000	      0.00000000
      1.43800000	     -6.30462505	    664.77552056	      1.75284538	      0.33139417	     -0.00200000	      0.17475704	      0.00000000	      0.38354028	      0.00000000	      0.00000000	      0.00000000	      0.00000000	      0.00000000	      0.00000000	      0.00000000	      0.00000000	      0.00000000	      0.00000000
      1.43900000	     -6.36511808	    664.81299326	      1.71329558	      0.33148182	     -0.00200000	      0.17495421	      0.00000000	      0.38224606	      0.00000000	      0.00000000	      0.00000000	      0.00000000	      0.00000000	      0.00000000	      0.00000000	      0.00000000	      0.00000000	      0.00000000
      1.44000000	     -6.42494336	    664.84952718	      1.67335575	      0.33156926	     -0.00200000	      0.17515145	      0.00000000	      0.38087032	      0.00000000	      0.00000000	      0.00000000	      0.00000000	      0.00000000	      0.00000000	      0.00000000	      0.00000000	      0.00000000	      0.00000000
      1.44100000	     -6.48394860	    664.88483548	      1.63291949	      0.33165644	     -0.00200000	      0.17534873	      0.00000000	      0.37939927	      0.00000000	      0.00000000	      0.00000000	      0.00000000	      0.00000000	      0.00000000	      0.00000000	      0.00000000	      0.00000000	      0.00000000
      1.44200000	     -6.54231180	    664.91920501	      1.59208132	      0.33174343	     -0.00200000	      0.17554604	      0.00000000	      0.37785633	      0.00000000	      0.00000000	      0.00000000	      0.00000000	      0.00000000	      0.00000000	      0.00000000	      0.00000000	      0.00000000	      0.00000000
